<svg xmlns="http://www.w3.org/2000/svg" width="24" height="24" viewBox="0 0 24 24" fill="none" stroke="currentColor" stroke-width="2" stroke-linecap="round" stroke-linejoin="round"><path d="M9.9 4.24A9 9 0 0 1 12 3c7 0 10 7 10 7a13.4 13.4 0 0 1-1.67 2.68"/><path d="M6.61 6.61A13.5 13.5 0 0 0 2 12s3 7 10 7a9.7 9.7 0 0 0 5.39-1.61"/><path d="M2 2 22 22"/><path d="M15 12.5c0 .15-.01.3-.02.45m-2.62.38A3.03 3.03 0 0 1 12 15a3 3 0 0 1-3-3c0-.2.02-.38.06-.55"/><path d="M9.5 9.5c.18-.04.36-.06.55-.06.9 0 1.7.35 2.3.94"/></svg>